<!DOCTYPE svg PUBLIC "-//W3C//DTD SVG 1.1//EN" "http://www.w3.org/Graphics/SVG/1.1/DTD/svg11.dtd">
<!-- Uploaded to: SVG Repo, www.svgrepo.com, Transformed by: SVG Repo Mixer Tools -->
<svg version="1.1" id="Layer_1" xmlns="http://www.w3.org/2000/svg" xmlns:xlink="http://www.w3.org/1999/xlink" width="800px" height="800px" viewBox="-47.62 -47.62 322.02 322.02" enable-background="new 0 0 226.777 226.777" xml:space="preserve" fill="#000000" stroke="#000000" stroke-width="0.0022677699999999997">
<g id="SVGRepo_bgCarrier" stroke-width="0">
<rect x="-47.62" y="-47.62" width="322.02" height="322.02" rx="161.01" fill="#1a40ff" strokewidth="0"/>
</g>
<g id="SVGRepo_tracerCarrier" stroke-linecap="round" stroke-linejoin="round"/>
<g id="SVGRepo_iconCarrier"> <g> <polygon fill="#231F20" points="61.354,106.638 164.52,106.638 113.339,31.45 "/> <polygon fill="#231F20" points="113.104,207.363 165.086,113.644 60.621,113.644 "/> <path fill="#231F20" d="M109.103,25.26H66.04c0,0.109,0.013,0.214,0.003,0.324l-6.645,71.566L109.103,25.26z"/> <path fill="#231F20" d="M117.598,25.26l48.842,71.749l-6.449-71.433c-0.009-0.107,0.005-0.209,0.005-0.315H117.598z"/> <polygon fill="#231F20" points="173.401,113.24 122.363,205.322 224.58,102.282 "/> <polygon fill="#231F20" points="51.553,105.877 59.039,25.26 54.674,25.26 -0.096,94.63 "/> <polygon fill="#231F20" points="2.008,102.258 103.941,205.285 52.379,113.227 "/> <polygon fill="#231F20" points="174.275,105.889 226.782,94.647 171.142,25.26 166.996,25.26 "/> </g> </g>
</svg>